<svg width="24" height="25" viewBox="0 0 24 25" fill="none" xmlns="http://www.w3.org/2000/svg"><path d="M19.63 4.15a1 1 0 00-.84-.2 8 8 0 01-6.22-1.27 1 1 0 00-1.14 0 8 8 0 01-6.22 1.27A1 1 0 004 4.93v7.45a9 9 0 003.77 7.33l3.65 2.6a1 1 0 001.16 0l3.65-2.6A9.001 9.001 0 0020 12.38V4.93a1 1 0 00-.37-.78zM18 12.38a7 7 0 01-2.93 5.7L12 20.27l-3.07-2.19A7 7 0 016 12.38v-6.3a10 10 0 006-1.39 10 10 0 006 1.39v6.3zm-4.46-2.29l-2.69 2.7-.89-.9a1.004 1.004 0 00-1.42 1.42l1.6 1.6a1.002 1.002 0 001.42 0L15 11.5a1.004 1.004 0 10-1.42-1.42l-.04.01z" fill="#fff"/></svg>