<svg width="24" height="25" viewBox="0 0 24 25" fill="none" xmlns="http://www.w3.org/2000/svg"><g clip-path="url(#clip0_812_5357)"><g clip-path="url(#clip1_812_5357)" fill="#fff"><path d="M12.773 2.029A10.497 10.497 0 0012 2V.5a12 12 0 01.883.033l-.11 1.496zm3.005.675c-.48-.186-.974-.336-1.477-.449L14.63.791c.574.129 1.14.3 1.688.513l-.54 1.4zm2.056 1.064a10.52 10.52 0 00-.659-.404l.74-1.305c.512.29 1.003.618 1.468.98l-.922 1.184c-.204-.159-.413-.31-.627-.453v-.002zm2.75 2.686a10.376 10.376 0 00-.979-1.194l1.086-1.035c.405.427.78.885 1.12 1.365l-1.227.864zm1.117 2.028a10.627 10.627 0 00-.322-.702l1.34-.676c.265.527.49 1.073.675 1.632l-1.425.47c-.08-.245-.17-.486-.268-.724zm.794 3.76a10.486 10.486 0 00-.15-1.538l1.478-.255c.1.58.159 1.168.174 1.755l-1.5.038h-.002zm-.196 2.307c.05-.255.09-.508.122-.765l1.489.184a11.935 11.935 0 01-.345 1.733l-1.446-.4c.069-.248.129-.498.18-.752zm-1.428 3.569c.276-.435.519-.891.729-1.362l1.371.607c-.24.54-.518 1.059-.832 1.557l-1.268-.803zm-1.446 1.807c.183-.183.358-.372.525-.567l1.137.98c-.192.223-.393.439-.602.647l-1.06-1.06z"/><path d="M12 2a10.5 10.5 0 107.425 17.925l1.06 1.06A12.001 12.001 0 1112 .5V2z"/><path d="M11.25 5a.75.75 0 01.75.75v7.815l4.872 2.784a.75.75 0 01-.744 1.302l-5.25-3A.75.75 0 0110.5 14V5.75a.75.75 0 01.75-.75z"/></g></g><defs><clipPath id="clip0_812_5357"><path fill="#fff" transform="translate(0 .5)" d="M0 0h24v24H0z"/></clipPath><clipPath id="clip1_812_5357"><path fill="#fff" transform="translate(0 .5)" d="M0 0h24v24H0z"/></clipPath></defs></svg>