<svg width="37" height="37" viewBox="0 0 37 37" fill="none" xmlns="http://www.w3.org/2000/svg"><path d="M29.716 10.753L21.622 2.66c-.231-.23-.463-.346-.81-.346H9.25a2.32 2.32 0 00-2.313 2.312v27.75a2.32 2.32 0 002.313 2.313h18.5a2.32 2.32 0 002.313-2.313V11.562c0-.346-.116-.578-.347-.809zm-8.904-5.665l6.476 6.474h-6.476V5.088zm6.938 27.287H9.25V4.625h9.25v6.938a2.32 2.32 0 002.313 2.312h6.937v18.5z" fill="#D70E1A"/><path d="M11.563 25.438h13.874v2.312H11.563v-2.313zm0-6.938h13.874v2.313H11.563V18.5z" fill="#D70E1A"/></svg>