<svg width="37" height="37" viewBox="0 0 37 37" fill="none" xmlns="http://www.w3.org/2000/svg"><g clip-path="url(#clip0_812_10600)"><g clip-path="url(#clip1_812_10600)" fill="#D70E1A"><path d="M19.562 4.102c-.354-.026-.708-.04-1.062-.04V2c.405 0 .81.015 1.215.045l-.153 2.057zm4.133.928a14.443 14.443 0 00-2.031-.617l.451-2.013c.79.178 1.568.413 2.323.706l-.743 1.924zm2.826 1.464a14.476 14.476 0 00-.906-.557l1.017-1.794c.705.4 1.38.85 2.02 1.349l-1.27 1.627a14.4 14.4 0 00-.861-.623v-.002zm3.782 3.692a14.405 14.405 0 00-1.346-1.642l1.493-1.423a17.208 17.208 0 011.54 1.877l-1.687 1.188zm1.535 2.789a14.6 14.6 0 00-.441-.966l1.841-.928c.365.724.675 1.474.928 2.244l-1.959.646a14.47 14.47 0 00-.37-.996zm1.093 5.17a14.412 14.412 0 00-.206-2.114l2.031-.35c.139.796.219 1.604.24 2.413l-2.063.051h-.002zm-.27 3.172c.068-.35.124-.699.167-1.052l2.048.254c-.1.805-.258 1.601-.474 2.382l-1.989-.55c.095-.34.178-.685.248-1.034zm-1.964 4.907c.38-.598.714-1.225 1.003-1.873l1.885.836c-.33.742-.712 1.456-1.145 2.14l-1.743-1.103zM28.71 28.71c.252-.251.493-.511.722-.78l1.563 1.348a16.7 16.7 0 01-.827.89L28.71 28.71z"/><path d="M18.5 4.063a14.438 14.438 0 1010.21 24.646l1.457 1.459A16.503 16.503 0 012.073 16.884 16.502 16.502 0 0118.5 2v2.063z"/><path d="M17.468 8.188a1.031 1.031 0 011.032 1.03v10.746l6.699 3.828a1.031 1.031 0 01-1.023 1.79l-7.219-4.124a1.031 1.031 0 01-.52-.895V9.219a1.031 1.031 0 011.031-1.031z"/></g></g><defs><clipPath id="clip0_812_10600"><path fill="#fff" transform="translate(2 2)" d="M0 0h33v33H0z"/></clipPath><clipPath id="clip1_812_10600"><path fill="#fff" transform="translate(2 2)" d="M0 0h33v33H0z"/></clipPath></defs></svg>