<svg width="37" height="37" viewBox="0 0 37 37" fill="none" xmlns="http://www.w3.org/2000/svg"><path d="M10.307 28.328l4.922-4.922-1.635-1.635-4.922 4.922-.917-.917a1.156 1.156 0 00-1.635 0l-4.625 4.625a1.156 1.156 0 000 1.635l3.469 3.469a1.156 1.156 0 001.634 0l4.625-4.625a1.156 1.156 0 000-1.635l-.916-.917zM5.78 33.053l-1.834-1.834 2.99-2.99 1.834 1.834-2.99 2.99z" fill="#D70E1A"/><path d="M27.75 34.688a6.945 6.945 0 01-6.938-6.938c0-.604.083-1.206.243-1.789L11.04 15.945a6.909 6.909 0 01-8.238-9.22l.645-1.643 3.83 3.83a1.183 1.183 0 001.633 0 1.155 1.155 0 000-1.636L5.082 3.445 6.727 2.8a6.911 6.911 0 019.218 8.239L25.96 21.055a6.91 6.91 0 018.237 9.22l-.644 1.643-3.83-3.83a1.183 1.183 0 00-1.634 0 1.157 1.157 0 00-.001 1.636l3.83 3.83-1.644.646a6.89 6.89 0 01-2.525.487zm-16.116-21.42L23.73 25.365l-.277.705a4.597 4.597 0 004.008 6.296l-1.007-1.006a3.47 3.47 0 010-4.906 3.552 3.552 0 014.906 0l1.006 1.007a4.597 4.597 0 00-6.297-4.008l-.704.277L13.27 11.635l.278-.705a4.595 4.595 0 00-4.01-6.296l1.007 1.006a3.469 3.469 0 010 4.906 3.552 3.552 0 01-4.906 0L4.633 9.54a4.596 4.596 0 006.296 4.008l.705-.278z" fill="#D70E1A"/><path d="M33.673 3.295a3.552 3.552 0 00-4.906 0l-8.648 8.649 1.635 1.635 8.648-8.649a1.184 1.184 0 011.635 0 1.159 1.159 0 010 1.635l-8.648 8.649 1.634 1.636 8.65-8.649a3.472 3.472 0 000-4.906z" fill="#D70E1A"/></svg>